{"title":"The.Descendants.2011.DvDScr.XviD.Feel-Free","uid":6964641,"size":1279950848,"categoryP":"video","categoryS":"movies","magnet":"?xt=urn:btih:8524bcfc48fdeb9c4ef2c431eb9511390381c71b&amp;dn=The.Descendants.2011.DvDScr.XviD.Feel-Free&amp;tr=udp%3A%2F%2Ftracker.openbittorrent.com%3A80&amp;tr=udp%3A%2F%2Fopen.demonii.com%3A1337&amp;tr=udp%3A%2F%2Ftracker.coppersurfer.tk%3A6969&amp;tr=udp%3A%2F%2Fexodus.desync.com%3A6969","seeders":1,"leechers":0,"uploader":"THEONE1982","files":-1,"time":1326883052,"description":"Format : AVI\n Format/Info : Audio Video Interleave\n File size : 1.19 GiB\n Duration : 2h 0mn\n Overall bit rate : 1 417 Kbps\n \nVideo\n ID : 0\n Format : MPEG-4 Visual\n Format profile : Advanced Simple@L5\n Format settings, BVOP : Yes\n Format settings, QPel : No\n Format settings, GMC : No warppoints\n Format settings, Matrix : Default (H.263)\n Codec ID : XVID\n Codec ID/Hint : XviD\n Duration : 2h 0mn\n Bit rate : 1 254 Kbps\n Width : 640 pixels\n Height : 280 pixels\n Display aspect ratio : 2.25:1\n Frame rate : 23.976 fps\n Color space : YUV\n Chroma subsampling : 4:2:0\n Bit depth : 8 bits\n Scan type : Progressive\n Bits/(Pixel*Frame) : 0.292\n Stream size : 1.06 GiB (89%)\n Writing library : XviD 1.2.1 (UTC 2008-12-04)\n \nAudio\n ID : 1\n Format : AC-3\n Format/Info : Audio Coding 3\n Mode extension : CM (complete main)\n Codec ID : 2000\n Duration : 1h 55mn\n Bit rate mode : Constant\n Bit rate : 160 Kbps\n Channel(s) : 2 channels\n Channel positions : Front: L R\n Sampling rate : 48.0 KHz\n Bit depth : 16 bits\n Stream size : 132 MiB (11%)\n Alignment : Aligned on interleaves\n Interleave, duration : 43 ms (1.04 video frame)\n Interleave, preload duration : 512 ms\n \n\nWith his wife Elizabeth on life support after a boating accident, Hawaiian land baron Matt King takes his daughters on a trip from Oahu to Kauai to confront the young real estate broker, who was having an affair with Elizabeth before her misfortune.\n\n\nScreen shots here: &lt;a href=&quot; http://imageshack.us/g/254/screenshotstudiocapturely.jpg/&quot; rel=&quot;nofollow&quot; target=&quot;_NEW&quot;&gt; http://imageshack.us/g/254/screenshotstudiocapturely.jpg/&lt;/a&gt;\n\n\nEnjoy!!!!!!!!!! ","torrent":{"xt":"urn:btih:8524bcfc48fdeb9c4ef2c431eb9511390381c71b","amp;dn":"The.Descendants.2011.DvDScr.XviD.Feel-Free","amp;tr":["udp%3A%2F%2Ftracker.openbittorrent.com%3A80","udp%3A%2F%2Fopen.demonii.com%3A1337","udp%3A%2F%2Ftracker.coppersurfer.tk%3A6969","udp%3A%2F%2Fexodus.desync.com%3A6969"],"infoHash":"8524bcfc48fdeb9c4ef2c431eb9511390381c71b","infoHashBuffer":{"type":"Buffer","data":[133,36,188,252,72,253,235,156,78,242,196,49,235,149,17,57,3,129,199,27]},"announce":[],"urlList":[]}}